# xmcd
#
# Track frame offsets: 
#        150
#        13953
#        27463
#        38732
#        52638
#        62980
#        77715
#        95346
#        110041
#        127468
#        149448
#
# Disc length: 2247 seconds
#
# Revision: 2
# Processed by: cddbd v1.5.2PL0 Copyright (c) Steve Scherf et al.
# Submitted via: ExactAudioCopy v0.99pb5
#
DISCID=9d08c50b
DTITLE=Marvin Gaye - The Marvin Gaye Collection (SACD)
DYEAR=2004
DGENRE=R&B
TTITLE0=Ain't That Peculiar
TTITLE1=It Takes Two (Duet With Kim Weston)
TTITLE2=Ain't No Mountain High Enough (Duet With Tammi Terrell)
TTITLE3=Your Precious Love (Duet With Tammi Terrell) 
TTITLE4=Ain't Nothing Like The Real Thing (Duet With Tammi Terrell)
TTITLE5=I Heard It Through The Grapevine
TTITLE6=What's Going On
TTITLE7=Mercy Mercy Me (The Ecology)
TTITLE8=Trouble Man
TTITLE9=Let's Get It On
TTITLE10=Distant Lover 
EXTD=
EXTT0=
EXTT1=
EXTT2=
EXTT3=
EXTT4=
EXTT5=
EXTT6=
EXTT7=
EXTT8=
EXTT9=
EXTT10=
PLAYORDER=
